<svg xmlns="http://www.w3.org/2000/svg" viewBox="0 0 200 200"><defs><linearGradient id="a" x1="95.595" y1="85.901" x2="204.847" y2="195.153" gradientUnits="userSpaceOnUse"><stop offset="0" stop-color="#cc3434"/><stop offset="1" stop-color="#cc3434" stop-opacity="0"/></linearGradient></defs><title>angular</title><path fill="#f05455" d="M0 0h200v200H0z"/><path fill="url(#a)" d="M175.52 46.023L36.376 145.12 89.891 200H200V70.992l-24.48-24.969z"/><path fill="#dc2427" d="M99.759 20L24.48 46.492l11.896 98.628L99.839 180l63.79-35.353 11.891-98.624L99.759 20z"/><path fill="#a51e22" d="M175.52 46.023L99.759 20l.155 160 63.715-35.353 11.891-98.624z"/><path fill="#dc2226" d="M32.927 52.144l10.194 88.206 56.461 31.316V28.386L32.927 52.144z"/><path d="M118.419 104.662l-18.836 8.808H79.73l-9.33 23.342-17.358.321L99.583 33.591zm-1.821-4.434L99.708 66.79 85.854 99.652h13.728z" fill="#f3f3f3"/><path fill="#b4b4b4" d="M99.582 33.591l.125 33.199 15.72 32.888H99.618l-.036 13.771 21.861.021 10.217 23.667 16.609.308L99.582 33.591z"/></svg>