<svg xmlns="http://www.w3.org/2000/svg" viewBox="0 0 200.086 200.101"><defs><linearGradient id="a" x1="93.757" y1="93.785" x2="200.079" y2="200.108" gradientUnits="userSpaceOnUse"><stop offset="0" stop-color="#333"/><stop offset="1" stop-color="#231f20" stop-opacity="0"/></linearGradient></defs><title>bash</title><path fill="#fff" d="M0 0h200v200H0z"/><path fill="url(#a)" d="M200 64.333l-24.242-30.362-18.09 113.286-134.819 17.436 36.818 35.408h140.419L200 64.333z"/><path d="M168.571 31.429H31.429A11.428 11.428 0 0 0 20 42.857v114.286a11.428 11.428 0 0 0 11.429 11.429h137.142A11.428 11.428 0 0 0 180 157.143V42.857a11.428 11.428 0 0 0-11.429-11.428zm-125.714 80l22.857-22.858-22.857-22.857 11.429-11.428 34.285 34.285-34.285 34.286zm91.429 11.429H88.571v-11.429h45.714v11.429z" fill="#333"/></svg>