<svg xmlns="http://www.w3.org/2000/svg" viewBox="0 0 200 200"><defs><linearGradient id="a" x1="99.991" y1="100.009" x2="199.991" y2="200.009" gradientUnits="userSpaceOnUse"><stop offset="0" stop-color="#121134" stop-opacity=".5"/><stop offset="1" stop-color="#612e51"/></linearGradient><linearGradient id="b" x1="310.064" y1="-235.252" x2="319.047" y2="-226.112" gradientTransform="matrix(15.623 0 0 -15.623 -4814.623 -3503.652)" gradientUnits="userSpaceOnUse"><stop offset="0" stop-color="#121134"/><stop offset="1" stop-color="#612e51"/></linearGradient></defs><title>bootstrap</title><path fill="#7d3e6a" d="M0 0h200v200H0z"/><path fill="url(#a)" d="M172.292 27.708L27.708 172.292 55.378 200H200V55.582l-27.708-27.874z"/><rect x="20.33" y="20" width="159.341" height="160" rx="25.74" ry="25.74" fill="url(#b)"/><path d="M101.2 88.88q6.1 0 9.257-2.655t3.153-7.833q0-5.112-3.153-7.767-3.15-2.725-9.257-2.725H86.916v20.98H101.2m.872 43.349q7.781 0 11.671-3.253 3.957-3.253 3.958-9.825 0-6.439-3.89-9.626-3.891-3.253-11.738-3.253H86.916v25.958h15.159m24.014-35.649a22.982 22.982 0 0 1 12.879 8.829q4.561 6.439 4.561 15.8 0 14.339-9.793 21.376t-29.782 7.037H61.091V50.51h38.771q20.861 0 30.185 6.24 9.391 6.24 9.391 19.982a21.688 21.688 0 0 1-3.421 12.348 20.185 20.185 0 0 1-9.927 7.5" fill="#fff"/></svg>