<svg data-name="Capa 1" xmlns="http://www.w3.org/2000/svg" viewBox="0 0 611.999 611.999"><title>close</title><path d="M387.128 170.748L306 251.915l-81.128-81.167-54.124 54.124L251.915 306l-81.128 81.128 54.085 54.086L306 360.086l81.128 81.128 54.086-54.086L360.086 306l81.128-81.128zM522.38 89.62c-119.493-119.493-313.267-119.493-432.76 0s-119.493 313.267 0 432.76 313.267 119.493 432.76 0 119.493-313.267 0-432.76zM468.3 468.3c-89.62 89.619-234.932 89.619-324.551 0s-89.62-234.932 0-324.551 234.931-89.62 324.551 0 89.614 234.888 0 324.551z" fill="#fe9141"/></svg>