<svg xmlns="http://www.w3.org/2000/svg" viewBox="0 0 200 200"><defs><linearGradient id="a" x1="102.005" y1="88.535" x2="206.735" y2="193.265" gradientUnits="userSpaceOnUse"><stop offset="0" stop-color="#256db4"/><stop offset="1" stop-color="#256db4" stop-opacity="0"/></linearGradient></defs><title>css</title><path fill="#5690cc" d="M0 0h200v200H0z"/><path fill="url(#a)" d="M200 51.094L170.54 20 42.299 164.007 76.401 200H200V51.094z"/><path fill="#1673b6" d="M42.3 164.006L29.46 20h141.08l-12.852 143.983L99.914 180 42.3 164.006z"/><path fill="#35a9db" d="M100.001 167.757l46.684-12.942 10.983-123.04h-57.667v135.982z"/><path fill="#fff" d="M100 83.948h23.371l1.615-18.086H100V48.199h44.288l-.424 4.739-4.34 48.671H100V83.948z"/><path fill="#ebebeb" d="M100.106 129.816l-.077.022-19.67-5.312-1.258-14.086H61.372l2.474 27.731 36.179 10.044.081-.023v-18.376z"/><path fill="#fff" d="M121.87 100.861l-2.126 23.653-19.699 5.317v18.375l36.207-10.035.266-2.983 3.073-34.327H121.87z"/><path fill="#ebebeb" d="M100.062 48.199v17.663H57.4l-.354-3.97-.805-8.954-.422-4.739h44.243zM100 83.95v17.661H80.579l-.353-3.969-.806-8.954-.422-4.738H100z"/></svg>