<svg xmlns="http://www.w3.org/2000/svg" viewBox="0 0 200 200"><defs><linearGradient id="a" x2="200" y2="200" gradientUnits="userSpaceOnUse"><stop offset="0" stop-color="#fff"/><stop offset="1" stop-color="#b6b8ba"/></linearGradient><clipPath id="b"><path d="M15.6 20h13.629a80 80 0 0 1 0 160H15.6v-35.165h13.629a44.835 44.835 0 1 0 0-89.67H15.6V20zm63.738 0H135.6a48.791 48.791 0 0 1 37.505 80 48.791 48.791 0 0 1-37.505 80H79.341a94.4 94.4 0 0 0 32.959-35.165h23.3a13.626 13.626 0 0 0 0-27.253h-13.624a94.4 94.4 0 0 0 0-35.165H135.6a13.626 13.626 0 0 0 0-27.253h-23.3A94.4 94.4 0 0 0 79.341 20z" fill="none"/></clipPath><linearGradient id="c" y1="100" x2="200" y2="100" gradientUnits="userSpaceOnUse"><stop offset="0" stop-color="#b94e52"/><stop offset="1" stop-color="#f68e4a"/></linearGradient></defs><title>d3</title><path fill="url(#a)" d="M0 0h200v200H0z"/><g clip-path="url(#b)"><path fill="url(#c)" d="M0 0h200v200H0z"/></g></svg>