<svg data-name="Layer 1" xmlns="http://www.w3.org/2000/svg" viewBox="0 0 200 200.011"><title>desktop</title><path d="M99.994 0a99.992 99.992 0 0 0-7.278 199.719c2.406.169 4.824.292 7.278.292a100.006 100.006 0 0 0 99.883-95.248 101.2 101.2 0 0 0 .123-4.757A100.006 100.006 0 0 0 99.994 0z" fill="#37bfda"/><path d="M111.358 143.006v5.918a2.551 2.551 0 0 0 1.725 2.414l13.847 4.738a2.551 2.551 0 0 1-.826 4.963H73.9a2.551 2.551 0 0 1-.794-4.975l14.471-4.741a2.551 2.551 0 0 0 1.756-2.423v-5.89a2.551 2.551 0 0 1 2.551-2.551h16.933a2.551 2.551 0 0 1 2.541 2.547z" fill="#f5f9fa"/><rect x="39.044" y="46.331" width="121.911" height="99.036" rx="15.573" ry="15.573" fill="#f5f9fa"/><rect x="47.891" y="56.071" width="104.217" height="66.42" rx="3.311" ry="3.311" fill="#f79046"/></svg>