<svg xmlns="http://www.w3.org/2000/svg" viewBox="0 0 200 200"><defs><linearGradient id="a" x1="200" y1="100" x2="0" y2="100" gradientUnits="userSpaceOnUse"><stop offset="0" stop-color="#0079a6"/><stop offset="1" stop-color="#0091c6"/></linearGradient><linearGradient id="b" x1="90.39" y1="100.482" x2="194.954" y2="205.046" gradientUnits="userSpaceOnUse"><stop offset="0" stop-color="#156695"/><stop offset="1" stop-color="#208ccc" stop-opacity="0"/></linearGradient></defs><title>firebase</title><path fill="url(#a)" d="M0 0h200v200H0z"/><path fill="url(#b)" d="M200 116.156l-59.377-64.239-98.898 97.23L91.11 200H200v-83.844z"/><path d="M41.725 149.147l.969-1.356 45.82-86.941.1-.92-20.2-37.94a3.748 3.748 0 0 0-7.014 1.182z" fill="#fec24c"/><path d="M42.3 148.112l.733-1.429 45.34-86.03-20.152-38.094a3.4 3.4 0 0 0-6.476 1.177z" fill="#faa71c"/><path d="M42.3 148.112l.733-1.429 45.34-86.03-20.152-38.094a3.4 3.4 0 0 0-6.476 1.177z" fill="#faa51a"/><path d="M103.335 88.627l15.039-15.4-15.044-28.721a3.875 3.875 0 0 0-6.828 0l-8.037 15.328v1.306z" fill="#f3bd63"/><path d="M103.066 87.985l14.621-14.974-14.621-27.841c-1.388-2.643-4.761-2.92-6.135-.269l-8.08 15.566-.242.8z" fill="#faa51a"/><path d="M103.066 87.985l14.621-14.974-14.621-27.841c-1.388-2.643-4.761-2.92-6.135-.269l-8.08 15.566-.242.8z" fill="#faa51a"/><path fill="#f58220" d="M41.725 149.147l.439-.442 1.595-.648 58.631-58.413.743-2.022L88.507 59.75l-46.782 89.397z"/><path d="M105.213 178.606l53.062-29.593-15.153-93.322a3.626 3.626 0 0 0-6.146-1.981l-95.251 95.437L94.483 178.6a11.01 11.01 0 0 0 10.73 0" fill="#fce069"/><path d="M157.8 148.764l-15.038-92.613c-.47-2.9-3.449-4.1-5.523-2.019l-94.926 94.833 52.179 29.165a10.926 10.926 0 0 0 10.649 0z" fill="#fccb3f"/><path d="M105.213 177.734a11.01 11.01 0 0 1-10.73 0L42.15 148.7l-.425.449L94.483 178.6a11.01 11.01 0 0 0 10.73 0l53.062-29.593-.13-.8z" fill="#eeac38"/></svg>