<svg xmlns="http://www.w3.org/2000/svg" viewBox="0 0 200 200"><defs><linearGradient id="a" x1="125.284" y1="125.306" x2="199.989" y2="200.011" gradientUnits="userSpaceOnUse"><stop offset="0" stop-color="#c0bfb6"/><stop offset="1" stop-color="#c0bfb6" stop-opacity="0"/></linearGradient></defs><title>git</title><path fill="#f0efe4" d="M0 0h200v200H0z"/><path d="M200 115.59l-25.211-25.211a10.306 10.306 0 0 0-14.573 0l-69.861 69.856a10.311 10.311 0 0 0 0 14.576L115.546 200H200v-84.41z" fill="url(#a)"/><path d="M176.982 107.126l-69.857 69.856a10.3 10.3 0 0 1-14.573 0l-14.5-14.508 18.4-18.4a12.237 12.237 0 0 0 15.5-15.6l17.736-17.734a12.248 12.248 0 1 0-7.342-6.913l-16.542 16.541V76.839a12.242 12.242 0 1 0-10.08.357v43.929a12.265 12.265 0 0 0-6.655 16.08l-18.14 18.143-47.9-47.9a10.311 10.311 0 0 1 0-14.576l69.849-69.855a10.306 10.306 0 0 1 14.573 0l69.531 69.533a10.308 10.308 0 0 1 0 14.576" fill="#ef3f2f"/></svg>