<svg xmlns="http://www.w3.org/2000/svg" viewBox="0 0 200 200"><defs><clipPath id="a"><path d="M176.364 85.455h-74.546v30.909h42.909c-4 19.636-20.727 30.909-42.909 30.909a47.273 47.273 0 0 1 0-94.545 46.249 46.249 0 0 1 29.455 10.545L154.545 40a79.949 79.949 0 1 0-52.727 140c40 0 76.364-29.091 76.364-80a66.368 66.368 0 0 0-1.818-14.545z" fill="none"/></clipPath></defs><title>google</title><path fill="#fff" d="M0 0h200v200H0z"/><g clip-path="url(#a)"><path fill="#f9bc15" d="M14.545 147.273V52.727L76.364 100l-61.819 47.273z"/></g><g clip-path="url(#a)"><path fill="#ea4535" d="M14.545 52.727L76.364 100l25.454-22.182 87.273-14.182V12.727H14.545v40z"/></g><g clip-path="url(#a)"><path fill="#36a852" d="M14.545 147.273l109.091-83.637 28.728 3.637 36.727-54.546v174.546H14.545v-40z"/></g><g clip-path="url(#a)"><path fill="#557ebf" d="M189.091 187.273L76.364 100 61.818 89.091l127.273-36.364v134.546z"/></g></svg>