<svg xmlns="http://www.w3.org/2000/svg" viewBox="0 0 200 200"><defs><linearGradient id="a" x2="200" y2="200" gradientUnits="userSpaceOnUse"><stop offset="0" stop-color="#5bba47"/><stop offset="1" stop-color="#2a6727"/></linearGradient></defs><title>gsap</title><path fill="url(#a)" d="M0 0h200v200H0z"/><path d="M43.643 92.943c-4.671 2.2-17.034 12.088-19.415 15.018-2.473 2.931-3.205-1.648-.641-9.249C25.6 92.577 30.73 84.243 39.338 77.1c5.036-4.121 16.118-10.073 22.894-13.554a226.86 226.86 0 0 1 34.983-12c1.374-.366-1.648 2.289-2.106 3.755C92.728 62.264 45.2 92.119 45.2 92.119zm66.942 83.977c.824 4.945.092 5.312-5.036 5.953s-8.883-1.282-10.257-2.564-1.648-4.121-.275-6.685c.825-1.649 1.649-2.2 2.107-4.213a10.26 10.26 0 0 1 1.19-3.113c.366-.642.458-1.283.549-5.77s0-12.913.458-16.484c.458-3.663 16.3 1.648 16.3 1.648s-3.755 9.341-4.762 11.63-.916 6.685-.916 7.6-.366 2.747-.641 2.839.916 2.472.366 3.846c-.368 1.284.826 4.581.917 5.313zM116.63 36.9c-.55-3.48 0-10.349.732-11.447 2.29-3.114 14.378-3.48 16.942.183 1.1 1.648 1.007 5.495.824 7.967s-.824 7.784-.916 9.524c-.091 1.282-13.37 3.3-16.3-.183-.824-.918-1.282-6.044-1.282-6.044zm26.924 131.137c5.586 4.03 9.89 4.762 12.729 6.227s2.106 4.3-2.656 5.129c-3.846.732-9.89-.733-13.92-.733s-13 .458-15.385-1.19c-2.747-1.923-1.557-5.5-1.557-5.5.733-2.014 2.564-6.5 2.015-10.165a34.437 34.437 0 0 0-2.656-9.066c-1.374-3.388-2.381-11.722-1.1-12.18s.915 0 2.564.366a26.662 26.662 0 0 0 7.052.916 53.977 53.977 0 0 0 8.883-.824c1.374-.275 2.472-.55 2.014 2.289s-1.831 8.15-1.923 12.271-.091 8.883.183 9.707 2.292 1.746 3.757 2.753z" fill="#2f2f2f"/><path d="M123.956 46.055c-10.073 8.7-29.58 11.081-58.518 22.253-7.418 2.839-27.2 11.356-31.961 20.239C49.5 79.3 55.456 92.028 56.738 105.123c1.19 12.271 7.326 18.682 23.078 18.315 16.209-.366 21.155 9.066 25.642 20.148 8.7-42.4 22.62-50.643 31.594-57.877 19.048-15.477-4.396-42.767-13.096-39.654z" fill="#8bc641"/><path d="M123.956 46.055C99.78 54.481 75.878 56.587 47.764 73.9c-6.685 4.121-20.788 13.462-23.536 31.32C34.484 93.859 58.2 79.573 87.233 70.507c14.652-4.579 25.367-7.6 38.371-12.638-.915-5.861-.915-8.151-1.648-11.814z" fill="#8bc641"/><path d="M154.818 96.24s-1.74 5.953-5.22 7.876c0 0-2.564.916-7.692-1.923-1.465-.824-2.564-3.663-2.473-4.579a4.273 4.273 0 0 1 1.465-3.205s1.466-2.473 3.205-2.381 4.671.366 5.587-.458c.824-.916 5.31 1.648 5.128 4.67zm-37.364-57.602a71.535 71.535 0 0 1-1.007 7.6c-.092.55-2.839.824-4.854 1.649 3.846 10.989 27.016 10.9 30.038 5.495a39.9 39.9 0 0 0-5.769-3.113c-1.374-.55-1.282-.458-1.374-3.022s-.275-7.326-.458-8.609-14.378-1.283-16.576 0z" fill="#2f2f2f"/><path d="M118.37 38.638s0 2.656-.275 5.22a21.581 21.581 0 0 1-.366 2.839c-.092.55 3.113 2.747 4.029 7.6 4.4 9.8 14.561 4.945 18.774.275a35.4 35.4 0 0 0-6.593-3.48c-1.374-.55-.733-1.74-.824-4.3s-.458-6.319-.641-7.693-11.906-1.744-14.104-.461z" fill="#f1efef"/><path d="M117.454 38.638s-.092 1.649-.366 3.572c1.19 1.19 2.747 2.839 3.938 3.846.824.733 2.838.641 4.67.641 1.648 0 3.113.183 3.755-.183a19.129 19.129 0 0 0 4.762-3.938c-.091-1.648-.183-3.205-.274-3.938-.093-1.283-14.287-1.283-16.485 0z" fill="#2f2f2f"/><path d="M125.788 45.6a20.277 20.277 0 0 1-3.389-.275 5.387 5.387 0 0 1-1.282-.549c-.641-.458-1.282-1.007-2.014-1.557-1.466-1.1-1.557-1.74-1.557-2.014a42.606 42.606 0 0 0-.183-10.623s-.641-2.473 2.839-3.114a45 45 0 0 1 5.586-.732 29.281 29.281 0 0 1 5.586.732c3.48.641 2.839 3.114 2.839 3.114a42.619 42.619 0 0 0-.183 10.623c0 .274-.091.915-1.557 2.014-1.282.916-2.289 1.923-3.3 2.106a20.284 20.284 0 0 1-3.385.275z" fill="#2f2f2f"/><path d="M125.788 24.351c-6.044 0-7.235 1.648-8.975 3.48-.366.458-.092 3.205.55 9.066h.824a10.956 10.956 0 0 1-.458-3.572c.092-1.923.458-1.831.183-2.289-.366-.55-1.1-1.466.55-2.381s4.212.732 7.326.824c3.113-.092 5.769-1.74 7.418-.824s.916 1.831.55 2.381.091.366.183 2.289a10.97 10.97 0 0 1-.458 3.572h.819c.549-5.861.916-8.425.641-8.883-1.553-2.014-3.109-3.571-9.153-3.663zm29.03 72.164s-1.74 5.586-5.128 7.509c-.733-.366-.641-.915-1.282-1.74a11.528 11.528 0 0 0-1.1-.732 4.771 4.771 0 0 0-.641-1.1c-.366-.366-.641-.092-1.008-.366-.366-.366-.458-.824-.732-1.1-.183-.183-.916-.275-1.1-.458-.458-.458-4.487-1.282-4.3-2.2a7.968 7.968 0 0 1 1.1-2.381s1.74-2.564 3.479-2.473 3.389.458 4.3-.366c1.009-.908 6.687 2.476 6.412 5.407z" fill="#2f2f2f"/><path d="M142.913 56.038s5.769-1.374 9.707 2.381a10.405 10.405 0 0 1 2.473 11.539 8.874 8.874 0 0 1 1.465 8.425c6.044 5.128 3.388 13-2.015 18.224a7.113 7.113 0 0 0-6.41-5.037c.183-1.831-4.762-3.3-2.473-8.059-3.48-.824-3.388-3.205-3.938-6.135-.458-2.932 1.191-21.338 1.191-21.338z" fill="#2f2f2f"/><path d="M140.806 58.6s6.685-3.388 10.623.458 2.838 8.059 1.648 10.989c1.007 1.19 3.388 4.579 1.923 8.608-.275.916-2.289.916-3.755 3.3 3.663-2.107 5.953-1.557 6.777 1.1 1.282 4.121-1.557 9.066-4.029 11.814 0-.092-.092-.183-.092-.275a13.969 13.969 0 0 1-3.571 6.96c-1.374 1.465-2.473 1.282-4.03.916-1.831-.458-2.472-1.283-5.036-2.656-1.465-.824-.641-1.832-.641-2.656a1.88 1.88 0 0 1 .458-.824 7.376 7.376 0 0 1 1.557-2.015 3.835 3.835 0 0 1 2.931-1.557c1.74.092 3.571-.274 4.029-.732 0-3.205-3.663-3.3-2.381-8.791.092-.275.55-.733 2.015-.916-2.2-.458-3.205-.55-4.762-2.015a6.76 6.76 0 0 1-2.2-3.938c-.548-2.841-1.464-17.77-1.464-17.77z" fill="#f1efef"/><path d="M121.483 52.832a16.561 16.561 0 0 0-8.791-5.861c-1.557-.458-2.564.824-4.121 1.74-.458-.275-2.473-1.191-3.572-.55a24.59 24.59 0 0 1-2.931 1.74 4.957 4.957 0 0 0-3.205.183 9.077 9.077 0 0 0-4.763 3.572c-1.1 3.938 19.414 1.007 19.414 1.007z" fill="#2f2f2f"/><path d="M121.667 52.832c-2.931-1.008-2.473-4.4-8.975-4.945-1.282-.092-2.106.915-3.022 1.557a5.722 5.722 0 0 1 1.191 1.923 7.607 7.607 0 0 0-3.755-2.381c-1.374-.274-2.289.733-3.755 1.466a9.526 9.526 0 0 1 .915 1.282 3.748 3.748 0 0 0-3.938-.458 10.113 10.113 0 0 0-5.22 3.846c-1.1 3.938 18.5-.458 18.5-.458z" fill="#8bc641"/><path d="M138.883 54.3s0-1.008-.092-1.923c0-.183-.732-.641-.732-.824l-.183-.183a3.486 3.486 0 0 1 2.564-.37 3.631 3.631 0 0 1 1.831 1.923c2.106-.732 2.289.092 3.3 1.191 2.2-.458 2.472.366 3.846 2.381a16.232 16.232 0 0 0-4.853.274c-3.117.459-5.681-2.563-5.681-2.469z" fill="#2f2f2f"/><path d="M138.517 53.839s.549-.458.366-.55c1.007-.549 2.381-1.19 3.022.55 2.106-.733 2.381.275 3.388 1.374 2.564-1.191 2.747.274 2.931.915a36.167 36.167 0 0 0-3.663.275c-3.114.459-6.136-2.655-6.044-2.564z" fill="#8bc641"/><path d="M107.381 51.55A29.159 29.159 0 0 0 117 53.107c4.4-.366 11.9-.732 15.934 1.649a15.415 15.415 0 0 1 7.966-.456c3.847 1.007 10.9 7.6 8.792 14.561a5.4 5.4 0 0 1-2.748 1.649 9.479 9.479 0 0 1-.549 5.678c-1.282 2.473-4.121 7.235-4.213 13.828-.091 1.1-.274 3.388-.458 4.487-7.143-.274-18.132-2.931-28.939-2.747.091-1.19.183-1.923.275-3.113h.274c-.549-3.022-.732-4.579-1.282-6.869a30.312 30.312 0 0 1-10.256-9.616c-3.024-4.858 5.585-20.608 5.585-20.608zM142.73 101s5.678 20.331-1.007 28.847A12.16 12.16 0 0 1 140.44 138c-.366 1.831-.825 3.48-1.1 5.311-1.191 7.6-3.206 10.806-3.755 22.986l-5.5-.091s-.641-8.791-2.564-13.462c-1.1-2.655-5.4-6.227-5.219-9.8.183-2.748.732-5.037 5.4-8.7.366-5.311-4.946-10.348-4.121-30.129z" fill="#2f2f2f"/><path d="M141.081 100.178c1.465 9.341 4.853 23.169-1.282 29.946a13.808 13.808 0 0 1 .091 5.22 21.358 21.358 0 0 1-1.007 3.571 32.865 32.865 0 0 0-1.557 7.326c-1.191 7.6-1.191 7.968-1.74 20.148l-5.5-.092s-.641-8.791-2.564-13.462c-1.1-2.656-3.388-4.945-3.571-8.517-.183-2.747 1.74-8.242 6.319-8.059-.275-11.081-5.4-8.883-6.777-31.961zm-33.7-48.628a21.681 21.681 0 0 0 4.212.824 54.042 54.042 0 0 0 6.685-.092c4.4-.366 10.623-.824 14.744 1.557a14.186 14.186 0 0 1 4.762-.55c1.1.092 2.2 1.008 3.48 1.374 4.029 1.007 7.876 7.692 6.135 13.737-.183.458-1.465 0-2.931.458a12.131 12.131 0 0 1-1.008 7.326 26.469 26.469 0 0 0-3.205 14.836c-9.616-.458-13.92-1.1-23.444-1.557a55.024 55.024 0 0 1-1.465-8.517 9.126 9.126 0 0 0 3.022-2.289c-2.747.458-3.846.275-5.5-.641a27.315 27.315 0 0 1-6.044-5.769c-.183-.183-1.19 2.838-3.479 2.93-.825-1.191 2.655-4.579 2.014-5.861-2.283-4.67 2.022-17.766 2.022-17.766z" fill="#f1efef"/><path d="M141.813 92.577S142 95.874 142 96.7c0 .916.733 3.663.824 4.945-1.007 1.74-5.4 5.678-13.37 7.143-7.876 1.648-18.315-10.714-18.315-10.714.275-1.191 1.191-4.671 1.832-6.5a2.905 2.905 0 0 0 .275-.824c.82-1.195 28.567 1.827 28.567 1.827z" fill="#2f2f2f"/><path d="M139.8 92.852a26.406 26.406 0 0 0 .641 5.4c.458 2.656 1.19 4.4 1.19 6.136 0 5.311-6.96 4.4-12.821 4.579-7.876 1.649-14.561-10.714-14.561-10.714a52.317 52.317 0 0 1 1.74-6.5c.091-1.1.275-2.472.366-3.113a234 234 0 0 1 23.627 1.1 7.943 7.943 0 0 1-.183 3.114z" fill="#f1efef"/><path d="M131.007 104.665s-4.853-10.806-19.415-7.6c-3.479 9.8-8.15 21.063-5.128 33.243-3.022 4.121-6.5 6.411-6.5 14.011s.366 8.883.366 8.883l10.714.55a32 32 0 0 0 4.853-9.341 19.868 19.868 0 0 0 .458-6.685 7.294 7.294 0 0 0 2.106-4.3 20.844 20.844 0 0 0 8.242-9.432c2.839-6.05 2.107-11.27 4.304-19.329z" fill="#2f2f2f"/><path d="M131.007 104.665c-.274-1.007-3.938-10.9-17.491-7.967-7.967 21.246-5.036 30.038-3.846 33.884-5.4 6.868-7.876 8.333-6.776 22.253h7.143c3.3-5.22 4.029-7.143 4.212-14.011 0-.275-1.007.549-1.74 1.465.55-2.839 2.106-3.388 3.3-5.128a5.426 5.426 0 0 0 1.007-3.3c6.41-4.3 8.791-9.707 10.165-15.294 1.096-3.843 2.378-10.167 4.026-11.902z" fill="#f1efef"/><path d="M108.388 89.921a19.254 19.254 0 0 1 4.671.824 4.835 4.835 0 0 1 2.931 2.106c.824.916 2.839 2.289 2.473 3.663a3.351 3.351 0 0 1-1.282 1.557c-.275.275-2.29 2.472-2.748 2.747-.275.183-.641.458-.916.641l-1.374.916a4.3 4.3 0 0 1-2.564.641 6.038 6.038 0 0 1-3.755-1.648 1.329 1.329 0 0 1 .183-1.1 13.2 13.2 0 0 1-2.473-2.748 4.64 4.64 0 0 1-.183-3.479c.183-.823 3.755-3.113 5.037-4.12zm2.29 89.105l-.275 2.29s-.824 1.007-6.96.916c-6.227-.092-7.876-2.015-8.425-3.022l-.366-2.381a8.22 8.22 0 0 1 1.465-1.74c2.015.183 8.883 2.931 13.645 3.663a2.691 2.691 0 0 1 .916.274zm13.278-4.67c0 1.007-.092 1.007-.092 2.015 1.1.824 3.847 1.282 9.066 1.19 7.6-.183 14.652 2.29 23.261.824l.092-1.648-.824-.091-30.5-2.473z" fill="#2f2f2f"/><path d="M130.641 177.561h2.289c4.946-.183 9.616.916 14.652 1.191 2.656-.092 5.953-.733 5.678-2.656l-26.008-2.2c-1.552 1.742-.366 3.204 3.389 3.665zm-29.854-38.554c.824.549 6.41 3.846 15.477 3.388-.183 1.74-.092 5.129-4.121 11.081-2.015 2.931-3.755 8.059-4.121 14.561.092 1.465.916 2.747-.183 4.67a52.559 52.559 0 0 0 2.564 5.036c.732 1.466 1.1 3.114-3.755 3.206-4.945.091-12.913-.458-11.813-4.3.55-2.015 2.106-4.121 2.29-4.946s.183-3.3 1.74-4.945c1.374-4.579.916-8.974.642-13.1-.46-4.303-.552-11.171 1.28-14.651zm8.513-74.636c6.5-8.7 1.007-15.66-9.432-13.554-4.213.824-8.425 3.755-8.7 9.066-1.374.183-4.487.366-6.044 6.044-1.19 4.4-1.831 5.22-3.938 7.418-1.374 1.557.092 4.762 1.1 7.052 3.389 7.876 13.828 8.608 20.88 14.561a10.161 10.161 0 0 0 5.586-5.036c-5.953-7.052-4.671-9.8-7.052-13.462 2.567-.917 8.428-4.488 7.6-12.089z" fill="#2f2f2f"/><path d="M108.021 63.821c.366-.55 1.007-1.74 1.282-2.2.092-.092 1.1 1.648 1.191 1.557 2.472-4.03 3.113-9.891.274-10.44a16.23 16.23 0 0 1-2.839-.733c-1.831-.641-3.479-.641-6.41-.091-4.029.732-8.059 3.663-8.059 7.876 0 .275 2.838 1.1 3.663 4.487-1.374-1.923-3.755-4.03-6.594-2.2C87.507 64 89.064 68.4 85.035 72.978c-1.374 1.557-1.191 3.389.274 7.052 2.381 5.77 13.645 8.883 19.781 14.378a8.288 8.288 0 0 0 3.21-3.208 32.562 32.562 0 0 1-6.96-11.264c-1.465-3.388-3.114-5.311-6.319-7.876a16.686 16.686 0 0 1 3.663 1.832 3.647 3.647 0 0 0 3.114.275c3.934-1.367 6.04-6.867 6.223-10.346z" fill="#f1efef"/><path d="M147.858 65.287c-.275 3.48-2.839 1.74-4.212 1.1a21.279 21.279 0 0 0-8.7-2.015 46.124 46.124 0 0 0-10.9 1.191c-4.945 1.374-6.411 1.282-8.609.183a65.586 65.586 0 0 1-6.044-4.121 3.262 3.262 0 0 0 .824 2.106 16.9 16.9 0 0 0 7.418 4.487 8.066 8.066 0 0 0 4.671-.183c8.15-2.015 16.758-2.381 23.993 2.015a2.673 2.673 0 0 0 2.2-1.191c.732-1.191-.641-3.572-.641-3.572z" fill="#2f2f2f"/><path d="M106.19 100.178a17.714 17.714 0 0 1 2.655 1.557 2.024 2.024 0 0 1-1.19-.366 12.925 12.925 0 0 1-1.465-1.191z" fill="#0e1a26"/><path d="M132.656 27.557c-.275-.824-2.29-2.29-6.96-2.29-5.037 0-6.5 1.557-6.593 2.381 0 .275-.366 3.206-.458 4.4 0 0 0 1.465.091 3.663.092 1.465.458 2.289.641 4.213a10.361 10.361 0 0 0 1.74 4.945 4.219 4.219 0 0 0 1.282.641 18.738 18.738 0 0 0 6.777 0c1.007-.275 2.289-2.015 2.564-3.572.366-1.923.732-3.3.824-4.487.183-1.19.275-3.846.366-4.579a19.243 19.243 0 0 0-.274-5.315z" fill="#f1efef"/><path d="M123.04 140.747s4.854 2.106 16.851.275c0 0-3.388 17.034-1.831 25.55 0 0 1.557 2.2 13.1 6.41 0 0 5.128 1.282 4.945 3.847 0 0 .183.549-6.044.366s-12.088-1.282-16.209-1.282-8.517.183-9.249-1.007c-.824-1.1.183-3.938 1.374-5.587 1.283-1.74.916-3.022.825-6.135-.282-8.151-6.509-16.576-3.762-22.437z" fill="#2f2f2f"/><path d="M122.033 142.3c-.641.916.091 4.4 1.007 7.784s2.931 5.4 3.389 10.989c.458 5.495.549 6.227-1.008 9.432s-2.015 6.136 3.388 6.227 8.334-.092 13.828.733 7.418 1.1 10.44.641 3.663-1.466 2.381-2.381-6.594-1.923-8.883-3.755c-2.2-1.648-8.425-4.4-8.516-5.128a94.546 94.546 0 0 1 .091-14.378c.458-2.931 1.1-7.143 1.282-8.242s1.1-2.2-.458-1.832a53.009 53.009 0 0 1-11.813.916c-4.395-.27-4.853-1.277-5.128-1.006z" fill="#8bc641"/><path d="M125.147 170.6a14.648 14.648 0 0 0 5.586 1.282s-.642 3.022.366 4.853-7.326.733-7.326.733l-.366-6.5zm24.268 7.877a2.287 2.287 0 0 0 1.282-3.663c-1.282-1.557-2.381-1.832-.733-1.923s7.693 3.571 7.693 3.571l-3.114 2.839zm-27.657-32.602a24.807 24.807 0 0 0 8.059.824 37.405 37.405 0 0 0 9.524-1.374c2.655-.916 1.557 1.007 1.557 1.007l-1.465 1.374a26 26 0 0 1-9.157 1.282c-6.685-.092-8.7-.824-8.7-.824zm.183 4.579a24.808 24.808 0 0 0 8.059.824c2.747-.091 6.41-.091 9.066-1.1 1.1-.366.458 1.191.458 1.191l-.458.824a28.207 28.207 0 0 1-9.158 1.19c-6.685-.091-7.876-.641-7.876-.641z" style="isolation:isolate" fill="#2f2f2f" opacity=".3"/><path d="M123.04 140.747a34.4 34.4 0 0 0 16.942.916s-3.48 16.392-1.923 24.818c0 0 1.557 2.2 13.1 6.41 0 0 5.128 1.282 4.945 3.846 0 0 .183.55-6.044.366s-12.088-1.282-16.209-1.282-8.517.183-9.249-1.007c-.824-1.1.183-3.938 1.374-5.586 1.283-1.74.916-3.022.825-6.136-.281-8.059-6.508-16.484-3.761-22.345z" fill="#2f2f2f" fill-opacity="0"/><path d="M123.04 140.747a35.035 35.035 0 0 0 16.942.824s-3.48 16.484-1.923 24.909c0 0 1.557 2.2 13.1 6.41 0 0 5.128 1.282 4.945 3.846 0 0 .183.55-6.044.366s-12.18-1.923-16.209-1.282c-4.3.733-8.517.458-9.249-1.007-.641-1.19.183-3.938 1.374-5.586 1.283-1.74.916-3.022.825-6.136-.281-8.058-6.508-16.483-3.761-22.344z" fill="#2f2f2f" fill-opacity="0"/><path d="M115.9 86.258c0 .641 7.143 4.212 11.081 4.945s12.18 0 13.462-.275l-.183 1.282s-9.8 1.465-17.308-.549-6.685-2.473-6.685-2.473z" fill="#2f2f2f"/><path d="M100.6 164.374a15.281 15.281 0 0 0 7.6 1.008c.366-.092 0-6.319 1.008-9.158 1.465-3.938 3.846-7.143 4.945-14.1a57.381 57.381 0 0 1-10.531-2.107c-2.922 8.972-1.922 16.664-3.022 24.357zm6.14 5.77c.641.183 1.1.915 1.282.458.366-.825-.641-2.381-.733-3.48v-.092c-.824-.732-6.41-.824-6.044-.458-.641 1.191-1.648 1.008-2.014 3.389-.183 1.19 1.282.183 2.655.091-2.472 1.648-5.311 3.755-5.769 5.586-.549 2.564.366 3.3 3.114 4.671a29.567 29.567 0 0 0 7.418.549c2.473-.458 2.931-1.648 2.2-3.3a33.242 33.242 0 0 1-2.109-7.414z" fill="#f1efef"/><path d="M107.747 51.184c3.022 1.74 7.235 1.282 8.791 1.191.366 0 4.03-.641 4.213-.55a.414.414 0 0 1 .366.366 11.884 11.884 0 0 1-4.487.915c-2.931.183-6.41 0-8.333-.915-2.29-1.007-.55-1.007-.55-1.007zm31.136 1.74c.549.366 4.121 1.74 5.678 3.388 1.374 1.466.641 1.374.366 1.008a21.844 21.844 0 0 0-4.3-2.839 7.894 7.894 0 0 1-2.473-1.465 1.035 1.035 0 0 1 .729-.092z" fill="#2f2f2f"/><path d="M107.289 90.928c2.656-.183 5.4.458 7.143 2.289.916.916 2.381 1.923 2.2 2.839a4.747 4.747 0 0 1-1.007 1.557c-.275.366-1.1 1.19-1.374 1.465-.366.275-1.648 1.282-1.923 1.465a6.377 6.377 0 0 1-.916.733 3.174 3.174 0 0 1-2.839-.366c-.915-.458.183-.55-.824-1.282-2.472-1.74-3.846-2.931-2.839-6.319.09-.641 1.097-1.374 2.379-2.381z" fill="#f1efef"/><path d="M83.937 69.957c-8.242 3.3-29.214 13.737-35.166 16.942 4.945 3.113 7.235 10.623 7.967 18.224.091.733.183 1.374.275 2.106a8.811 8.811 0 0 0 .274 1.374.548.548 0 0 0 .092.366c5.4-14.744 24.726-30.312 25.459-31.5.366-.549-.458-2.93.824-5.219 1.648-2.934 4.854-4.216.275-2.293zm19.597 69.143c4.212-8.425 4.3-16.484 4.212-25.917 0-3.938 2.839-9.524 1.374-7.967-5.5 6.135-19.323 17.675-29.3 18.315 14.007-.459 19.502 6.593 23.714 15.569z" style="isolation:isolate" fill="#2f2f2f" opacity=".4"/><path d="M40.712 94.683c5.22-3.755 32.235-18.132 38.738-20.147 6.5-2.106 4.487-4.579 4.487-4.579S57.562 81.312 41.81 91.111" fill="#2f2f2f"/><path d="M117.637 68.217c-2.106-.824-3.755 1.649-3.205 4.03s5.5 5.036 5.22 13.737c-.183 7.143-1.74 10.073-1.74 10.073l-3.48-4.4s-.549-9.891-1.74-11.356-4.945-4.121-6.41-5.495 1.648-3.205 1.465-5.77c-.183-2.472 1.557-7.418 1.557-7.418zm12.73 39.012c-.183 6.868 1.374 17.034 2.015 21.887s1.465 5.22 0 7.418c-1.465 2.106-3.388 5.586-3.388 5.586l-6.319-.55s5.037-6.41 5.311-7.6-2.564-10.256-2.564-10.256zm-12.18-64.104a8.093 8.093 0 0 0 5.313 4.945c1.465.549 7.235 1.282 9.524-1.282 1.007-1.191.366-4.4.366-4.4l-5.22 4.212-7.052-1.282-.824-2.106z" style="isolation:isolate" fill="#2f2f2f" opacity=".4"/><path d="M118.736 49.444c2.381 1.557 8.334 3.022 9.982 3.3 1.648.366 4.3-1.74 5.586-2.289 1.374-.641 3.755-1.008 6.5 1.465.275.275-.641 1.465-.641 1.465a10.545 10.545 0 0 1-1.374-.458 4.139 4.139 0 0 0-2.472-.549c-4.579.549-5.312 2.106-9.341 1.19S121.941 51.916 118 52.1" fill="#8bc641" stroke="#020202" stroke-linejoin="round" stroke-width=".713"/><path d="M117.912 49.718a78.991 78.991 0 0 0 10.531 3.022c1.648.366 4.3-1.282 5.586-2.106 2.29-1.465 5.22-.275 6.594 1.282a4.44 4.44 0 0 1 1.282 1.923c0 .366-1.1 0-1.1 0a11.886 11.886 0 0 1-1.923-.733 4.507 4.507 0 0 0-2.564-.824c-4.579.55-5.5 2.106-9.433 1.191s-4.945-1.74-9.157-1.466" fill="#8bc641"/><path d="M103.717 135.252c-.183-.183.183-.366 0-.366a5.279 5.279 0 0 1-3.755-2.2c-3.938-5.678-9.707-9.432-20.147-9.157-15.66.366-21.887-6.044-23.078-18.315-.637-6.684-2.472-13.186-6.227-16.85l-2.2 1.374c4.212 3.663 5.586 9.616 6.5 17.766 1.465 12.271 11.356 17.949 22.895 18.132 12 .183 16.3 2.656 20.788 8.7a7.194 7.194 0 0 0 4.4 2.839z" fill="#2f2f2f"/><path d="M146.21 76.368c.275 1.374 1.007 4.029 2.472 5.311.642.641.733.824.183.824s-4.579-.183-4.579-.183l-1.1-1.923z" style="isolation:isolate" fill="#2f2f2f" opacity=".4"/></svg>