<svg xmlns="http://www.w3.org/2000/svg" viewBox="0 0 200 200"><defs><linearGradient id="a" x1="98.97" y1="98.979" x2="199.995" y2="200.005" gradientUnits="userSpaceOnUse"><stop offset="0" stop-color="#1f110a" stop-opacity=".5"/><stop offset="1" stop-color="#1f110a" stop-opacity="0"/></linearGradient><radialGradient id="b" cx="-182.93" cy="-127.563" r=".21" gradientTransform="matrix(545.674 0 0 -528.311 99894.631 -67333.558)" gradientUnits="userSpaceOnUse"><stop offset="0" stop-color="#433426" stop-opacity=".98"/><stop offset="1" stop-color="#1f110a"/></radialGradient></defs><title>illustrator</title><path fill="#e57125" d="M0 0h200v200H0z"/><path fill="url(#a)" d="M200 40l-17.949-20L17.949 180l19.982 20H200V40z"/><path d="M24.786 26.838h150.428v146.324H24.786V26.838z" fill="url(#b)"/><path d="M24.786 26.838h150.428v146.324H24.786V26.838zM17.949 180h164.1V20h-164.1v160zM125.436 77.026a.7.7 0 0 1 .821-.821h10.735a.7.7 0 0 1 .82.821v53.949a.678.678 0 0 1-.82.82h-10.6a.767.767 0 0 1-.889-.889v-53.88h-.068zm-.752-15.526a6.974 6.974 0 0 1 13.949 0c0 4.513-2.94 6.974-7.111 6.974-3.967.005-6.838-2.457-6.838-6.974zM93.915 99.521c-1.915-7.59-6.427-24.136-8.137-32.136h-.137c-1.436 8-5.06 21.538-7.931 32.137h16.2zM74.906 110.6l-5.4 20.513a.806.806 0 0 1-1.026.683H58.427c-.684 0-.821-.205-.684-1.025L77.162 62.8a22.149 22.149 0 0 0 .684-5.675.552.552 0 0 1 .547-.684h14.359a.714.714 0 0 1 .821.684l21.743 73.778c.137.547 0 .889-.547.889h-11.35a.881.881 0 0 1-1.026-.615L96.786 110.6h-21.88z" fill="#f57f22"/></svg>