<svg data-name="Layer 1" xmlns="http://www.w3.org/2000/svg" viewBox="0 0 200 200.011"><title>ipad</title><path d="M99.994 0a99.992 99.992 0 0 0-7.278 199.719c2.406.169 4.824.292 7.278.292a100.006 100.006 0 0 0 99.883-95.248 101.2 101.2 0 0 0 .123-4.757A100.006 100.006 0 0 0 99.994 0z" fill="#37bfda"/><path d="M54.333 148.896v-97.78c0-9.265 6.43-16.776 14.361-16.776h62.61c7.932 0 14.361 7.511 14.361 16.776v97.78c0 9.265-6.43 16.776-14.361 16.776H68.695c-7.932.001-14.362-7.51-14.362-16.776z" fill="#f5f9fa"/><path d="M62.333 141.921V50.982c0-1.7 1.681-3.085 3.755-3.085h67.824c2.074 0 3.755 1.381 3.755 3.085v90.939c0 1.7-1.681 3.085-3.755 3.085H66.088c-2.074 0-3.755-1.381-3.755-3.085z" fill="#f79046"/><path d="M100 151.328a3.625 3.625 0 0 0-.264 7.24c.087.006.175.011.264.011a3.625 3.625 0 0 0 3.621-3.453v-.172a3.625 3.625 0 0 0-3.621-3.626z" fill="#37bfda"/></svg>