<svg xmlns="http://www.w3.org/2000/svg" viewBox="0 0 200 200"><defs><linearGradient id="a" x2="200" y2="200" gradientUnits="userSpaceOnUse"><stop offset="0" stop-color="#eee"/><stop offset="1" stop-color="#abacae"/></linearGradient></defs><title>jasmine</title><path fill="url(#a)" d="M0 0h200v200H0z"/><path d="M93.8 86.251h12.4l3.079-4.239v-33.2H90.727v33.2l3.073 4.239m-7.983 14.806l3.828-11.784-3.079-4.238-31.574-10.258-5.73 17.638 31.577 10.26 4.978-1.619M97.43 113.23l-10.024-7.285-4.983 1.62-19.512 26.859 15 10.9 19.519-26.859v-5.235m15.17-7.285l-10.027 7.284v5.238l19.513 26.858 15.006-10.9-19.516-26.86-4.978-1.619m-2.245-16.676l3.83 11.785 4.982 1.617 31.574-10.258-5.732-17.639-31.575 10.26-3.079 4.234" fill="#8b4283"/><path d="M100 20a80 80 0 1 0 80 79.987A80.084 80.084 0 0 0 100 20zm0 16.2a63.8 63.8 0 1 1-63.8 63.787A63.793 63.793 0 0 1 100 36.2" fill="#8b4283"/><path d="M148.456 117.766l-24-7.8 1.587-4.889 24 7.8-1.587 4.889m-30.611-38.532l-4.159-3.021L128.518 55.8l4.159 3.021-14.832 20.413m-35.432-.185L67.582 58.631l4.159-3.021 14.831 20.417-4.159 3.022m-30.966 38.412l-1.588-4.889 24-7.8 1.588 4.889-24 7.8m45.825 33.527h5.14v-25.237h-5.14v25.237z" fill="#8b4283"/></svg>