<svg xmlns="http://www.w3.org/2000/svg" viewBox="0 0 200 200"><defs><linearGradient id="a" x1="20" y1="110" x2="200" y2="110" gradientUnits="userSpaceOnUse"><stop offset="0" stop-color="#ccba56"/><stop offset="1" stop-color="#ccba56"/></linearGradient></defs><title>js</title><path fill="#fee86e" d="M0 0h200v200H0z"/><path fill="url(#a)" d="M200 40l-20-20L20 180l20 20h160V40z"/><path fill="#f0db4f" d="M20 20h160v160H20z"/><path d="M84.916 165.54H56.548v-49.257h28.368v8.558H66.992v10.815h16.677v8.558H66.992v12.7h17.924v8.625zm39.352-13.679a12.731 12.731 0 0 1-4.8 10.512q-4.8 3.841-13.358 3.841a31.374 31.374 0 0 1-13.949-2.965v-9.7a57.335 57.335 0 0 0 8.439 3.133 24.937 24.937 0 0 0 6.318.91 8.975 8.975 0 0 0 5.272-1.314 4.493 4.493 0 0 0 1.836-3.908 4.317 4.317 0 0 0-.809-2.577 9.047 9.047 0 0 0-2.375-2.173 61.272 61.272 0 0 0-6.385-3.335 30.249 30.249 0 0 1-6.772-4.077 15.282 15.282 0 0 1-3.6-4.548 12.979 12.979 0 0 1-1.348-6.064 12.731 12.731 0 0 1 4.43-10.276q4.43-3.74 12.248-3.739a28.925 28.925 0 0 1 7.328.909 50.546 50.546 0 0 1 7.294 2.561l-3.369 8.12a49.284 49.284 0 0 0-6.52-2.258 21.027 21.027 0 0 0-5.07-.64 6.716 6.716 0 0 0-4.549 1.381 4.558 4.558 0 0 0-1.583 3.605 4.458 4.458 0 0 0 .64 2.408 7.037 7.037 0 0 0 2.039 1.988 62.965 62.965 0 0 0 6.62 3.453q6.905 3.3 9.467 6.62a12.922 12.922 0 0 1 2.556 8.133zm5.155-7.243q0-14.622 6.183-21.765t18.512-7.143a33.585 33.585 0 0 1 6.6.5v8.322a26.969 26.969 0 0 0-5.93-.674 20.359 20.359 0 0 0-8.742 1.617 10.871 10.871 0 0 0-5.07 4.784 21.983 21.983 0 0 0-1.988 9h.438q3.337-5.728 10.682-5.728 6.6 0 10.342 4.145t3.74 11.455q0 7.882-4.447 12.482t-12.33 4.6a17.627 17.627 0 0 1-9.518-2.527 16.4 16.4 0 0 1-6.268-7.378 28.1 28.1 0 0 1-2.204-11.69zm17.788 13.273a6.162 6.162 0 0 0 5.121-2.24 10.017 10.017 0 0 0 1.785-6.384 8.815 8.815 0 0 0-1.666-5.678 6.083 6.083 0 0 0-5.037-2.071 7.723 7.723 0 0 0-5.408 2.055 6.31 6.31 0 0 0-2.24 4.784 10.84 10.84 0 0 0 2.105 6.772 6.449 6.449 0 0 0 5.34 2.763z" fill="#231f20"/></svg>