<svg data-name="Layer 1" xmlns="http://www.w3.org/2000/svg" viewBox="0 0 200 200.011"><title>mobile</title><path d="M99.994 0a99.992 99.992 0 0 0-7.278 199.719c2.406.169 4.824.292 7.278.292a100.006 100.006 0 0 0 99.883-95.248 101.2 101.2 0 0 0 .123-4.757A100.006 100.006 0 0 0 99.994 0z" fill="#37bfda"/><path d="M67.124 144.244V55.768c0-8.383 4.629-15.18 10.339-15.18h45.073c5.71 0 10.339 6.8 10.339 15.18v88.475c0 8.383-4.629 15.18-10.339 15.18H77.463c-5.71 0-10.339-6.796-10.339-15.179z" fill="#f5f9fa"/><path d="M71.6 137.932V55.648a2.811 2.811 0 0 1 2.831-2.791h51.132a2.811 2.811 0 0 1 2.831 2.791v82.285a2.811 2.811 0 0 1-2.831 2.791H74.434a2.811 2.811 0 0 1-2.834-2.792z" fill="#f79046"/><path d="M100 146.444a3.28 3.28 0 0 0-.239 6.551c.079.006.158.01.239.01a3.28 3.28 0 0 0 3.276-3.124v-.156a3.28 3.28 0 0 0-3.276-3.281z" fill="#37bfda"/></svg>