<svg xmlns="http://www.w3.org/2000/svg" viewBox="0 0 200 200"><title>nintendo</title><path fill="#fff" d="M0 0h200v200H0z"/><path d="M39.388 80.634a19.388 19.388 0 1 0 0 38.775c11.651 0 121.225-.041 121.225-.041a19.389 19.389 0 0 0 0-38.778l-121.225.043" fill="#fff"/><path d="M160.612 84.85a15.119 15.119 0 0 1 10.69 25.822 14.964 14.964 0 0 1-10.69 4.431l-121.225.046a15.127 15.127 0 0 1 0-30.254zM39.388 80.634a19.388 19.388 0 1 0 0 38.775c11.651 0 121.225-.041 121.225-.041a19.389 19.389 0 0 0 0-38.778l-121.225.043" fill="#ed1c26"/><path d="M54.907 90.644v18.33H49.07l-7.462-12.418c-.408-.815-.408-.016-.408-.016v12.434h-5.978v-18.33H41.2s7.119 11.74 7.508 12.292c.366.552.366 0 .366 0V90.644h5.837m2.972 3.339h5.471v-3.34h-5.471v3.34zm34.54-.638v1.987h2.449l.092 1.209h-2.541v12.434h-5.7V96.54H84.16l.069-1.209h2.495v-1.986h5.7M81.6 97.151a6.5 6.5 0 0 1 1.854 3.207v8.616h-5.749V100.5a2.643 2.643 0 0 0-2.678-1.987 2.6 2.6 0 0 0-2.655 1.843v8.616h-5.608V96.54h5.608c.572 1.067 1.923-.213 3.09-.412a7.679 7.679 0 0 1 6.138 1.023m-23.717 11.823h5.471V96.54h-5.471v12.434zm47.748-2.06a2.456 2.456 0 0 1-2.312 1.705 2.408 2.408 0 0 1-2.22-1.918l.069-3.768h10.415c-.023-3.479-1.488-4.83-2.678-5.684a11.059 11.059 0 0 0-11.88.838 6.087 6.087 0 0 0-1.946 4.69 6.213 6.213 0 0 0 1.785 4.349 10.475 10.475 0 0 0 8.79 2.046c2.129-.682 4.853-1.705 5.448-4.093h-5.448zm-4.349-7.876a2.208 2.208 0 0 1 2.22-1.646 2.07 2.07 0 0 1 2.06 1.806l.046 1.676h-4.326v-1.837m41.43-8.396v6.377c-1.877-1.023-5.013-1.66-6.981-.38-2.472 1.193-3.319 4.008-3.411 6.48a6.959 6.959 0 0 0 2.815 5.116 7.946 7.946 0 0 0 7.05.472 5.525 5.525 0 0 0 .618-.3 2.389 2.389 0 0 0 .664.343 13.173 13.173 0 0 0 4.509.227V90.641h-5.265zm0 16.112a2.424 2.424 0 0 1-2.2 1.225 3.3 3.3 0 0 1-2.152-.922v-8.172a1.931 1.931 0 0 1 2.014-1.135 2.769 2.769 0 0 1 2.335 1.135v7.87M128.75 97.2a6.709 6.709 0 0 1 1.854 3.207v8.616h-5.768v-8.473a2.632 2.632 0 0 0-2.655-1.987 2.575 2.575 0 0 0-2.655 1.843v8.616h-5.631V96.588h5.631c.549 1.067 1.9-.213 3.067-.41a7.748 7.748 0 0 1 6.157 1.022m29.962-1.44c-4.624 0-8.355 3.037-8.355 6.785s3.731 6.782 8.355 6.782c4.6 0 8.332-3.038 8.332-6.782s-3.731-6.785-8.332-6.785zm2.243 10.822a2.439 2.439 0 0 1-2.22 1.225 3.28 3.28 0 0 1-2.129-.922v-8.173a1.885 1.885 0 0 1 1.991-1.135 2.843 2.843 0 0 1 2.358 1.135v7.87m6.345-9.106a3.032 3.032 0 1 0-2.129-.884 3.008 3.008 0 0 0 2.129.884zm-2.426-3.012a2.392 2.392 0 0 1 .71-1.708 2.437 2.437 0 0 1 3.433 0 2.469 2.469 0 0 1 .687 1.708 2.415 2.415 0 0 1-4.83 0" fill="#ed1c26"/><path d="M166.655 93.235h1.03a.88.88 0 0 1 .343.06.485.485 0 0 1 .229.446.48.48 0 0 1-.183.421.785.785 0 0 1-.458.117h-.961v-1.044zm0 2.7v-1.311h.961a.862.862 0 0 1 .366.055.464.464 0 0 1 .229.4l.023.508a.623.623 0 0 0 .023.243.151.151 0 0 0 .023.1h.5v-.065a.222.222 0 0 1-.114-.185.7.7 0 0 1-.046-.261l-.023-.41a.586.586 0 0 0-.092-.385.483.483 0 0 0-.275-.192.786.786 0 0 0 .32-.279.857.857 0 0 0-.32-1.174 1.35 1.35 0 0 0-.572-.1h-1.419v3.058h.412" fill="#ed1c26"/></svg>