<svg xmlns="http://www.w3.org/2000/svg" viewBox="0 0 200 200"><defs><linearGradient id="a" x1="74.796" y1="67.764" x2="203.516" y2="196.484" gradientUnits="userSpaceOnUse"><stop offset="0" stop-color="#212630"/><stop offset="1" stop-color="#212630" stop-opacity="0"/></linearGradient></defs><title>npm</title><path fill="#2a303c" d="M0 0h200v200H0z"/><path fill="url(#a)" d="M200 83.378L180 68.8 20 122.56 126.244 200H200V83.378z"/><path fill="#fff" d="M175 117.314H95.714l-.354 8.927-25.132.417-.309-9.344H24.02v-42.41H175v42.41z"/><path d="M20 68.8h160v53.76h-80v8.64H64.48v-8.64H20V68.8zm9.057 44.638h17.675V86.579h8.886v26.859h8.806v-35.52H29.057v35.52zm44.17-35.678l.107 44.8h17.6v-8.938h17.817V77.76H73.227zM90.72 86.4H100v18.24h-9.28V86.4zm26.987-8.64v35.52h17.706V86.613h8.853v26.667h8.844V86.72h8.863v26.56h8.856V77.76h-53.122z" fill="#cd3732"/></svg>