<svg xmlns="http://www.w3.org/2000/svg" viewBox="0 0 200 200"><defs><linearGradient id="a" x2="200" y2="200" gradientUnits="userSpaceOnUse"><stop offset="0" stop-color="#2d2d2d"/><stop offset="1" stop-color="#222"/></linearGradient></defs><title>react</title><path fill="url(#a)" d="M0 0h200v200H0z"/><path d="M145.783 77.764q-2.211-.761-4.574-1.441.388-1.582.707-3.12c3.463-16.808 1.2-30.348-6.532-34.806-7.413-4.275-19.536.182-31.779 10.838q-1.766 1.537-3.538 3.246-1.179-1.128-2.354-2.174C84.88 38.913 72.018 34.112 64.295 38.583 56.889 42.87 54.7 55.6 57.813 71.528q.451 2.308 1.051 4.707a94.218 94.218 0 0 0-5.259 1.654C38.56 83.134 28.953 91.354 28.953 99.88c0 8.806 10.314 17.639 25.983 22.995q1.855.634 3.842 1.2-.644 2.592-1.116 5.072c-2.972 15.653-.651 28.082 6.738 32.343 7.629 4.4 20.433-.123 32.9-11.021q1.478-1.292 2.965-2.733 1.926 1.855 3.841 3.5c12.076 10.392 24 14.588 31.383 10.316 7.621-4.412 10.1-17.763 6.883-34.007q-.368-1.861-.852-3.8 1.349-.4 2.643-.826c16.29-5.4 26.888-14.122 26.888-23.046-.004-8.55-9.921-16.825-25.268-22.109zm-38.194-23.95c10.49-9.129 20.3-12.734 24.762-10.158 4.758 2.744 6.609 13.81 3.619 28.322q-.286 1.389-.639 2.825a145.414 145.414 0 0 0-19-3 142.6 142.6 0 0 0-12.012-14.991q1.64-1.576 3.27-2.997zm-33.462 46.213a172.448 172.448 0 0 1 6.044-11.455 168.82 168.82 0 0 1 6.89-10.969 172.237 172.237 0 0 1 25.902.004 182.472 182.472 0 0 1 6.846 10.932 199.378 199.378 0 0 1 6.126 11.4c-1.845 3.8-3.887 7.655-6.106 11.5s-4.5 7.528-6.817 11c-4.217.3-8.573.457-13.013.457-4.422 0-8.723-.137-12.865-.406a171.336 171.336 0 0 1-6.945-11.016c-2.2-3.8-4.226-7.635-6.062-11.447zm-3.219 7.138q1.908 3.685 4.028 7.352 2.159 3.73 4.461 7.3a129.194 129.194 0 0 1-13.1-2.105 137.023 137.023 0 0 1 4.611-12.548zM70.9 92.888a133.402 133.402 0 0 1-4.515-12.3c4.054-.907 8.377-1.649 12.882-2.211q-2.238 3.491-4.356 7.158-2.105 3.658-4.011 7.353zm54.186 21.587q2.171-3.765 4.121-7.529a128.762 128.762 0 0 1 4.771 12.5 129 129 0 0 1-13.255 2.259q2.215-3.505 4.364-7.23zm4.064-21.583q-1.933-3.671-4.088-7.394-2.109-3.643-4.321-7.106c4.534.573 8.878 1.334 12.957 2.265a129.672 129.672 0 0 1-4.547 12.235zm-29.083-31.74a129.745 129.745 0 0 1 8.362 10.095q-4.169-.2-8.43-.2-4.215 0-8.365.2c2.766-3.647 5.59-7.026 8.434-10.094zM67.336 43.837c4.754-2.752 15.264 1.172 26.345 11.01q1.062.943 2.132 1.968a145.421 145.421 0 0 0-12.1 14.98 148.358 148.358 0 0 0-18.961 2.947q-.555-2.231-.977-4.378c-2.675-13.648-.902-23.943 3.561-26.527zm-6.929 74.393q-1.813-.521-3.507-1.1c-6.929-2.368-12.651-5.446-16.573-8.8-3.524-3.018-5.3-6.015-5.3-8.446 0-5.174 7.714-11.774 20.58-16.259a89.274 89.274 0 0 1 4.891-1.539 145.5 145.5 0 0 0 6.925 17.946 147.884 147.884 0 0 0-7.016 18.198zM93.3 145.9c-5.513 4.819-11.038 8.238-15.907 9.958-4.375 1.545-7.86 1.589-9.966.375-4.482-2.585-6.345-12.564-3.8-25.95q.437-2.3 1.037-4.717a142.764 142.764 0 0 0 19.149 2.772 147.779 147.779 0 0 0 12.2 15.07q-1.363 1.31-2.713 2.492zm6.933-6.861c-2.877-3.1-5.747-6.538-8.549-10.231q4.081.16 8.314.161 4.344 0 8.578-.191a129.113 129.113 0 0 1-8.34 10.26zm36.861 8.446c-.846 4.562-2.548 7.6-4.653 8.821-4.478 2.592-14.054-.777-24.382-9.665q-1.776-1.528-3.573-3.258a142.6 142.6 0 0 0 11.914-15.124 141.688 141.688 0 0 0 19.244-2.967q.435 1.754.769 3.437c1.423 7.184 1.626 13.678.687 18.754zm5.153-30.318q-1.165.386-2.387.747a142.38 142.38 0 0 0-7.2-18 142.352 142.352 0 0 0 6.916-17.738q2.18.631 4.224 1.332c13.149 4.527 21.17 11.219 21.17 16.376.007 5.49-8.655 12.616-22.72 17.281z" fill="#17c1e3"/><path d="M100 87.311A12.689 12.689 0 1 1 87.311 100 12.689 12.689 0 0 1 100 87.311" fill="#17c1e3"/></svg>