<svg xmlns="http://www.w3.org/2000/svg" viewBox="0 0 200 200"><defs><linearGradient id="a" x1="100.022" y1="99.978" x2="200.022" y2="199.978" gradientUnits="userSpaceOnUse"><stop offset="0" stop-color="#527a7b"/><stop offset="1" stop-color="#527a7b" stop-opacity="0"/></linearGradient></defs><title>sass</title><path fill="#699" d="M0 0h200v200H0z"/><path fill="url(#a)" d="M156.561 43.439L43.5 156.5 86.966 200H200V86.878l-43.439-43.439z"/><path d="M100 20a80 80 0 1 1-80 80 80.025 80.025 0 0 1 80-80" fill="#cb4c9b"/><path d="M84.093 126.658a20.549 20.549 0 0 1-.167 11.957 20.216 20.216 0 0 1-.96 2.364 22.15 22.15 0 0 1-3.7 5.382c-4.643 5.069-11.137 6.988-13.922 5.376-3.007-1.743-1.5-8.893 3.887-14.588 5.8-6.128 14.135-10.065 14.135-10.065l-.013-.025q.36-.194.731-.4zm66.065-72.406c-3.622-14.208-27.177-18.878-49.472-10.958-13.256 4.729-27.6 12.123-37.935 21.782-12.276 11.457-14.235 21.449-13.429 25.645 2.844 14.721 23.041 24.366 31.341 31.514v.043c-2.445 1.206-20.363 10.278-24.553 19.544-4.423 9.779.7 16.8 4.1 17.745 10.518 2.927 21.316-2.337 27.117-10.991 5.6-8.353 5.132-19.137 2.7-24.5a32.223 32.223 0 0 1 12.243-.7c14.028 1.639 16.786 10.4 16.26 14.068a9.254 9.254 0 0 1-4.453 6.291c-.985.609-1.284.819-1.2 1.272.119.658.575.633 1.413.491 1.155-.195 7.367-2.982 7.634-9.752.338-8.593-7.893-18.2-22.475-17.952-6 .1-9.779.675-12.51 1.69-.2-.23-.407-.458-.619-.685-9.012-9.619-25.679-16.42-24.973-29.349.257-4.7 1.89-17.079 32.02-32.093 24.679-12.3 44.436-8.913 47.853-1.413 4.877 10.718-10.558 30.634-36.19 33.505-9.765 1.1-14.908-2.69-16.187-4.1-1.347-1.484-1.547-1.551-2.05-1.272-.819.454-.3 1.764 0 2.545.765 1.992 3.905 5.523 9.259 7.281 4.709 1.546 16.173 2.395 30.042-2.968 15.527-6.007 27.657-22.714 24.093-36.683" fill="#fff"/></svg>