<svg xmlns="http://www.w3.org/2000/svg" viewBox="0 0 200 200"><title>sesame</title><path fill="#fff" d="M0 0h200v200H0z"/><path d="M167.932 86.155c5.927.216 11.959 6.465 12.068 13.361V122.9c0 6.357-5.6 12.39-9.7 12.39l-138.986.21c-5.818-.216-10.775-4.633-10.99-13.683L20 99.515c.108-7.758 5.926-13.253 10.775-13.253l31.353-.323C75.6 87.016 72.687 64.714 100.377 64.5c19.394-.108 26.72 21.226 35.772 21.226l31.783.431z" fill="#64aa72"/><path d="M165.777 88.094a11.938 11.938 0 0 1 11.959 12.283l.109 21.549a11.356 11.356 0 0 1-11.852 11.528l-131.878.323a11.774 11.774 0 0 1-11.852-11.959V100.27a11.751 11.751 0 0 1 11.959-11.744l28.983-.108c12.821.97 12.283-21.226 35.986-21.226 22.412-.108 26.613 21.01 35.233 20.9h31.352z" fill="#f8e147"/><path d="M35.084 93.266l130.586-.323a8.185 8.185 0 0 1 8.188 8.189v19.825a7.873 7.873 0 0 1-8.081 8.08l-130.584.324a8.185 8.185 0 0 1-8.3-8.081v-19.825a8.184 8.184 0 0 1 8.188-8.189zm39.973-5.172c7.865-2.155 9.374-15.945 24.243-16.053 14.869 0 18.316 14.007 25.536 15.946l-49.779.107z" fill="#64aa72"/><path d="M42.411 115.568c.108-6.68-6.034-6.357-6.034-10.451-.108-1.4.539-2.263 1.509-2.263 1.293 0 1.4 1.616 1.4 3.233H42.3c.216-4.418-1.293-6.465-4.31-6.358-3.664-.108-4.74 2.586-4.74 6.034 0 6.357 6.141 6.572 6.249 10.344-.108 1.509-.647 2.478-1.616 2.478-1.724 0-1.724-1.725-1.724-3.771h-3.015c-.216 3.663.539 7 4.31 6.895 2.264.109 5.065-.646 4.957-6.141zm10.02 5.819v-3.232h-4.956v-6.357H52v-3.232h-4.525l-.108-5.171 4.957-.108v-3.341l-7.866.108v21.333h7.973zm10.774-5.926c0-6.68-6.141-6.249-6.141-10.343 0-1.509.647-2.263 1.616-2.263 1.185 0 1.4 1.616 1.4 3.233h3.02c.107-4.526-1.293-6.465-4.31-6.465-3.663 0-4.74 2.694-4.848 6.142.108 6.249 6.249 6.465 6.249 10.344 0 1.4-.539 2.37-1.509 2.478-1.724-.108-1.724-1.725-1.832-3.771h-3.018c-.108 3.663.539 6.895 4.309 6.895 2.371 0 5.064-.646 5.064-6.249zm3.664 5.819l.862-4.634h4.094l.754 4.634h3.232l-3.986-21.334h-3.987l-3.986 21.334h3.017zm4.309-7.973h-2.909l1.293-9.158h.216l1.4 9.158zm9.159 7.973v-16.485l2.694 16.485h2.908l2.801-16.485v16.485h3.017l-.107-21.334h-4.633l-2.478 14.546-2.262-14.546H77.32l.108 21.334h2.909zm21.332 0v-3.232h-5.17v-6.358h4.524v-3.232h-4.524v-5.279h4.848v-3.34l-7.865.107.107 21.334h8.08zm15.301-5.927c0-6.68-6.142-6.249-6.142-10.344 0-1.508.647-2.262 1.617-2.262 1.184 0 1.4 1.616 1.4 3.233h3.016c.109-4.526-1.293-6.465-4.309-6.465-3.663 0-4.74 2.693-4.74 6.033 0 6.358 6.142 6.573 6.034 10.452.109 1.4-.431 2.37-1.4 2.478-1.724-.109-1.724-1.833-1.833-3.879l-2.908.108c-.216 3.663.431 6.9 4.309 6.9 2.261 0 4.956-.646 4.956-6.249zm.538-15.514v3.556h3.34v17.777h3.125v-17.777h3.339v-3.556h-9.804zm14.222 3.34h1.293c.969-.108 1.509.754 1.509 2.694 0 1.4-.322 3.232-1.509 3.232h-1.293v-5.926zm0 9.158h.647c2.478 0 2.263 2.155 2.37 4.74a12.979 12.979 0 0 0 .216 4.095h3.016c-.322-.862-.322-4.848-.322-6.25 0-3.878-2.048-4.094-2.694-4.309 1.94-.431 2.694-2.478 2.694-5.171 0-3.664-1.293-5.6-3.447-5.6h-5.5l-.11 21.33h3.125v-8.835zm15.947 8.835v-3.232h-4.957v-6.358h4.526v-3.232h-4.526l-.107-5.171 4.956-.108v-3.34l-7.866.108v21.333h7.974zm9.481-.108v-3.124h-5.064v-6.358h4.524v-3.232h-4.524l-.107-5.279h4.956v-3.34h-7.866v21.441l8.081-.108zm.969-21.333v3.556h3.341l.108 17.777h2.908v-17.777h3.448v-3.556h-9.805zm-56.996-23.488c.322.539 0 1.509.107 2.155h-1.507v6.68a15.78 15.78 0 0 1-2.263 0 42.881 42.881 0 0 1 0-6.572 11.959 11.959 0 0 0-2.047.323c0-.97-.107-1.94-.107-1.94 2.047-1.078 4.956-.754 5.818-.647zm3.339 3.448c.216-.431.431-1.832.647-2.478a18.137 18.137 0 0 0 2.372.97 10.933 10.933 0 0 0 .753 2.478l.647-1.94a5.5 5.5 0 0 1 1.509 1.185s-.647 2.155-1.293 5.171l-1.724-.108s-1.184-3.232-1.293-3.34a21.132 21.132 0 0 0-1.293 3.447h-1.833l-1.078-8.835a7.211 7.211 0 0 1 2.155.754s.218 1.724.432 2.694zm-10.342-.324c0 .431-3.34 0-3.987 2.263-.323.754.431 1.293.862 1.616a7.193 7.193 0 0 0 3.232-.647 4.56 4.56 0 0 1 .216 1.724c-1.616 1.078-4.2 1.724-5.71 0a3.972 3.972 0 0 1-.539-3.663c.647-2.37 3.34-3.017 5.6-3.233l.324 1.939zm73.804 38.465h.968a.7.7 0 0 1 .862.647.683.683 0 0 1-.54.647l.862 1.078-.431.108-.753-1.078h-.54v1.078h-.431v-2.478zm.43 1.185h.324a.541.541 0 0 0 .647-.539.434.434 0 0 0-.54-.431h-.431v.97zm-1.723.108a2.21 2.21 0 1 1 4.418 0 2.21 2.21 0 1 1-4.418 0zm3.987 0a1.816 1.816 0 0 0-1.833-1.832 1.888 1.888 0 0 0-1.831 1.832 1.835 1.835 0 1 0 3.664 0z" fill="#fff"/></svg>