<svg xmlns="http://www.w3.org/2000/svg" viewBox="0 0 200 200"><defs><linearGradient id="a" x1="101.855" y1="101.888" x2="199.983" y2="200.017" gradientUnits="userSpaceOnUse"><stop offset="0" stop-color="#2f2f2f"/><stop offset="1" stop-color="#797979" stop-opacity="0"/></linearGradient><linearGradient id="b" x1="765.411" y1="45.598" x2="766.767" y2="-108.978" gradientTransform="matrix(1 0 0 -1 -666.095 67.65)" gradientUnits="userSpaceOnUse"><stop offset="0" stop-color="#535353"/><stop offset="1" stop-color="#3e3e3e"/></linearGradient></defs><title>sublime</title><path fill="#848484" d="M0 0h200v200H0z"/><path fill="url(#a)" d="M31.709 172.035L61.265 200H200V61.998l-27.612-29.869L31.709 172.035z"/><rect x="20" y="20" width="160" height="160" rx="33.333" ry="33.333" fill="url(#b)"/><path d="M102.182 49.153c-20.46 0-34.9 12.937-34.9 29.184a26.17 26.17 0 0 0 6.9 18.157c.6.68 1.113 1.136 1.674 1.727 0 0 31.942 32.112 32.267 32.267a21.638 21.638 0 0 1-7.892 1.261c-8.124 0-17.147-4.216-24.216-10.233l-12.646 15.19L106.663 180h40A33.266 33.266 0 0 0 180 146.663v-38.347L133.888 62.2c-.137-.137-.274-.268-.413-.4s-.252-.248-.381-.371c-.04-.038-.076-.079-.117-.117-.228-.216-.466-.425-.7-.636-.043-.038-.084-.079-.127-.117a45.592 45.592 0 0 0-29.968-11.406z" fill="#010101" fill-opacity=".314"/><path d="M76.007 121.514c7.069 6.017 16.1 10.23 24.22 10.23 9.177 0 13.689-3.612 13.689-9.477 0-6.168-5.565-8.124-14.141-11.734l-12.788-5.416c-10.08-4.062-19.708-12.486-19.708-26.779 0-16.247 14.443-29.185 34.9-29.185a45.414 45.414 0 0 1 31.595 12.937L122.49 76.081c-6.469-4.964-12.487-7.823-20.309-7.823-7.672 0-12.487 3.31-12.487 8.876 0 6.017 6.469 8.124 14.9 11.584l12.637 5.115c11.884 4.814 19.405 12.788 19.405 26.627 0 16.248-13.54 30.388-37.008 30.388a53.7 53.7 0 0 1-36.254-14.141l12.638-15.193z" fill="#f58120"/></svg>