<svg xmlns="http://www.w3.org/2000/svg" viewBox="0 0 200 200"><defs><linearGradient id="a" x2="200" y2="200" gradientUnits="userSpaceOnUse"><stop offset="0" stop-color="#fbb03d"/><stop offset="1" stop-color="#f05336"/></linearGradient><linearGradient id="b" x1="81.293" y1="104.258" x2="188.517" y2="211.483" gradientUnits="userSpaceOnUse"><stop offset="0" stop-color="#333"/><stop offset="1" stop-color="#231f20" stop-opacity="0"/></linearGradient></defs><title>svg</title><path fill="url(#a)" d="M0 0h200v200H0z"/><path fill="url(#b)" d="M200 105.438L173.75 78.75 92.015 93.536l-66.839 72.57L59.581 200H200v-94.562z"/><path d="M52.425 85.644a12.674 12.674 0 1 0 0 17.924h95.15a12.674 12.674 0 1 0 0-17.924h-95.15z" fill="#fbb03d" stroke="#333" stroke-width="21.489"/><path d="M72.7 54.628A12.674 12.674 0 1 0 60.022 67.3l67.278 67.283a12.674 12.674 0 1 0 12.674-12.674z" fill="#fbb03d" stroke="#333" stroke-width="21.489"/><path d="M108.962 47.03a12.674 12.674 0 1 0-17.924 0v95.15a12.674 12.674 0 1 0 17.924 0V47.03z" fill="#fbb03d" stroke="#333" stroke-width="21.489"/><path d="M139.978 67.3A12.674 12.674 0 1 0 127.3 54.628l-67.278 67.281A12.674 12.674 0 1 0 72.7 134.583z" fill="#fbb03d" stroke="#333" stroke-width="21.489"/><path d="M52.425 85.644a12.674 12.674 0 1 0 0 17.924h95.15a12.674 12.674 0 1 0 0-17.924h-95.15z" fill="#fbb03d"/><path d="M72.7 54.628A12.674 12.674 0 1 0 60.022 67.3l67.278 67.283a12.674 12.674 0 1 0 12.674-12.674z" fill="#fbb03d"/><path d="M108.962 47.03a12.674 12.674 0 1 0-17.924 0v95.15a12.674 12.674 0 1 0 17.924 0V47.03z" fill="#fbb03d"/><path d="M139.978 67.3A12.674 12.674 0 1 0 127.3 54.628l-67.278 67.281A12.674 12.674 0 1 0 72.7 134.583z" fill="#fbb03d"/><path d="M20 94.606h160v56.537a23.055 23.055 0 0 1-23.463 23.463H43.463A23.055 23.055 0 0 1 20 151.143V94.606z" fill="#333"/><path d="M44.008 134.542A20.731 20.731 0 1 1 79.4 119.887H67.256a8.589 8.589 0 1 0-14.668 6.064h.006c1.555 1.56 2.849 2.012 6.07 2.523 5.728.6 10.909 2.323 14.661 6.074A20.733 20.733 0 1 1 37.932 149.2h12.146a8.589 8.589 0 1 0 14.667-6.064h-.006c-1.555-1.555-3.786-2.091-6.075-2.517v-.006c-5.552-.851-10.9-2.323-14.656-6.075zm76.856-35.386L106.2 169.941H94.055L79.4 99.156h12.144l8.594 41.456 8.582-41.456h12.144zm20.736 29.318h20.731V149.2h.006a20.734 20.734 0 1 1-41.468 0v-29.312h-.006a20.734 20.734 0 0 1 41.468 0h-12.143a8.586 8.586 0 1 0-17.173 0V149.2a8.586 8.586 0 0 0 17.173.006v-8.586H141.6v-12.146z" fill="#fff"/></svg>